<mxfile host="app.diagrams.net" modified="2023-01-07T02:16:40.514Z" agent="5.0 (Windows NT 10.0; Win64; x64) AppleWebKit/537.36 (KHTML, like Gecko) Chrome/108.0.0.0 Safari/537.36" etag="kpTrmIJ942fBZkL8SlwN" version="20.8.3" type="github">
  <diagram id="C5RBs43oDa-KdzZeNtuy" name="Page-1">
    <mxGraphModel dx="1050" dy="549" grid="1" gridSize="10" guides="1" tooltips="1" connect="1" arrows="1" fold="1" page="1" pageScale="1" pageWidth="827" pageHeight="1169" math="0" shadow="0">
      <root>
        <mxCell id="WIyWlLk6GJQsqaUBKTNV-0" />
        <mxCell id="WIyWlLk6GJQsqaUBKTNV-1" parent="WIyWlLk6GJQsqaUBKTNV-0" />
        <mxCell id="WIyWlLk6GJQsqaUBKTNV-2" value="" style="rounded=0;html=1;jettySize=auto;orthogonalLoop=1;fontSize=11;endArrow=block;endFill=0;endSize=8;strokeWidth=1;shadow=0;labelBackgroundColor=none;edgeStyle=orthogonalEdgeStyle;" parent="WIyWlLk6GJQsqaUBKTNV-1" edge="1">
          <mxGeometry relative="1" as="geometry">
            <mxPoint x="220" y="120" as="sourcePoint" />
            <mxPoint x="220" y="170" as="targetPoint" />
          </mxGeometry>
        </mxCell>
        <mxCell id="0Jqt0QZvzuA7Bnrq7ynD-0" value="Start" style="ellipse;whiteSpace=wrap;html=1;" vertex="1" parent="WIyWlLk6GJQsqaUBKTNV-1">
          <mxGeometry x="165" y="60" width="110" height="60" as="geometry" />
        </mxCell>
        <mxCell id="0Jqt0QZvzuA7Bnrq7ynD-3" style="edgeStyle=orthogonalEdgeStyle;rounded=0;orthogonalLoop=1;jettySize=auto;html=1;exitX=0.5;exitY=1;exitDx=0;exitDy=0;entryX=0.5;entryY=0;entryDx=0;entryDy=0;" edge="1" parent="WIyWlLk6GJQsqaUBKTNV-1" source="0Jqt0QZvzuA7Bnrq7ynD-1" target="0Jqt0QZvzuA7Bnrq7ynD-2">
          <mxGeometry relative="1" as="geometry" />
        </mxCell>
        <mxCell id="0Jqt0QZvzuA7Bnrq7ynD-1" value="print &quot;Program Menghitung Luas dan Keleiling segitiga&quot;&amp;nbsp;" style="rounded=0;whiteSpace=wrap;html=1;" vertex="1" parent="WIyWlLk6GJQsqaUBKTNV-1">
          <mxGeometry x="160" y="170" width="120" height="60" as="geometry" />
        </mxCell>
        <mxCell id="0Jqt0QZvzuA7Bnrq7ynD-5" value="" style="edgeStyle=orthogonalEdgeStyle;rounded=0;orthogonalLoop=1;jettySize=auto;html=1;" edge="1" parent="WIyWlLk6GJQsqaUBKTNV-1" source="0Jqt0QZvzuA7Bnrq7ynD-2" target="0Jqt0QZvzuA7Bnrq7ynD-4">
          <mxGeometry relative="1" as="geometry" />
        </mxCell>
        <mxCell id="0Jqt0QZvzuA7Bnrq7ynD-2" value="print&amp;nbsp;1. Luas Segitiga &quot; + &quot;\n&quot; + &quot; 2. Keliling Segitiga &quot; + &quot;\n&quot; +&quot; 3. Selesa" style="rounded=0;whiteSpace=wrap;html=1;" vertex="1" parent="WIyWlLk6GJQsqaUBKTNV-1">
          <mxGeometry x="160" y="270" width="120" height="60" as="geometry" />
        </mxCell>
        <mxCell id="0Jqt0QZvzuA7Bnrq7ynD-7" value="" style="edgeStyle=orthogonalEdgeStyle;rounded=0;orthogonalLoop=1;jettySize=auto;html=1;" edge="1" parent="WIyWlLk6GJQsqaUBKTNV-1" source="0Jqt0QZvzuA7Bnrq7ynD-4" target="0Jqt0QZvzuA7Bnrq7ynD-6">
          <mxGeometry relative="1" as="geometry" />
        </mxCell>
        <mxCell id="0Jqt0QZvzuA7Bnrq7ynD-4" value="input &quot;Masukkan Pilihan&quot;" style="shape=parallelogram;perimeter=parallelogramPerimeter;whiteSpace=wrap;html=1;fixedSize=1;rounded=0;" vertex="1" parent="WIyWlLk6GJQsqaUBKTNV-1">
          <mxGeometry x="160" y="370" width="120" height="60" as="geometry" />
        </mxCell>
        <mxCell id="0Jqt0QZvzuA7Bnrq7ynD-10" style="edgeStyle=orthogonalEdgeStyle;rounded=0;orthogonalLoop=1;jettySize=auto;html=1;exitX=0.5;exitY=1;exitDx=0;exitDy=0;entryX=0.5;entryY=0;entryDx=0;entryDy=0;" edge="1" parent="WIyWlLk6GJQsqaUBKTNV-1" source="0Jqt0QZvzuA7Bnrq7ynD-6" target="0Jqt0QZvzuA7Bnrq7ynD-8">
          <mxGeometry relative="1" as="geometry" />
        </mxCell>
        <mxCell id="0Jqt0QZvzuA7Bnrq7ynD-15" value="" style="edgeStyle=orthogonalEdgeStyle;rounded=0;orthogonalLoop=1;jettySize=auto;html=1;" edge="1" parent="WIyWlLk6GJQsqaUBKTNV-1" source="0Jqt0QZvzuA7Bnrq7ynD-6" target="0Jqt0QZvzuA7Bnrq7ynD-14">
          <mxGeometry relative="1" as="geometry" />
        </mxCell>
        <mxCell id="0Jqt0QZvzuA7Bnrq7ynD-6" value="pilhan 1" style="rhombus;whiteSpace=wrap;html=1;rounded=0;" vertex="1" parent="WIyWlLk6GJQsqaUBKTNV-1">
          <mxGeometry x="160" y="480" width="120" height="100" as="geometry" />
        </mxCell>
        <mxCell id="0Jqt0QZvzuA7Bnrq7ynD-11" style="edgeStyle=orthogonalEdgeStyle;rounded=0;orthogonalLoop=1;jettySize=auto;html=1;exitX=0.5;exitY=1;exitDx=0;exitDy=0;entryX=0.5;entryY=0;entryDx=0;entryDy=0;" edge="1" parent="WIyWlLk6GJQsqaUBKTNV-1" source="0Jqt0QZvzuA7Bnrq7ynD-8" target="0Jqt0QZvzuA7Bnrq7ynD-9">
          <mxGeometry relative="1" as="geometry" />
        </mxCell>
        <mxCell id="0Jqt0QZvzuA7Bnrq7ynD-8" value="pilhan 2" style="rhombus;whiteSpace=wrap;html=1;rounded=0;" vertex="1" parent="WIyWlLk6GJQsqaUBKTNV-1">
          <mxGeometry x="160" y="610" width="120" height="100" as="geometry" />
        </mxCell>
        <mxCell id="0Jqt0QZvzuA7Bnrq7ynD-9" value="pilhan 3" style="rhombus;whiteSpace=wrap;html=1;rounded=0;" vertex="1" parent="WIyWlLk6GJQsqaUBKTNV-1">
          <mxGeometry x="160" y="740" width="120" height="100" as="geometry" />
        </mxCell>
        <mxCell id="0Jqt0QZvzuA7Bnrq7ynD-17" style="edgeStyle=orthogonalEdgeStyle;rounded=0;orthogonalLoop=1;jettySize=auto;html=1;exitX=1;exitY=0.5;exitDx=0;exitDy=0;" edge="1" parent="WIyWlLk6GJQsqaUBKTNV-1" source="0Jqt0QZvzuA7Bnrq7ynD-14" target="0Jqt0QZvzuA7Bnrq7ynD-16">
          <mxGeometry relative="1" as="geometry" />
        </mxCell>
        <mxCell id="0Jqt0QZvzuA7Bnrq7ynD-14" value="input Alas" style="shape=parallelogram;perimeter=parallelogramPerimeter;whiteSpace=wrap;html=1;fixedSize=1;rounded=0;" vertex="1" parent="WIyWlLk6GJQsqaUBKTNV-1">
          <mxGeometry x="320" y="500" width="120" height="60" as="geometry" />
        </mxCell>
        <mxCell id="0Jqt0QZvzuA7Bnrq7ynD-19" value="" style="edgeStyle=orthogonalEdgeStyle;rounded=0;orthogonalLoop=1;jettySize=auto;html=1;" edge="1" parent="WIyWlLk6GJQsqaUBKTNV-1" source="0Jqt0QZvzuA7Bnrq7ynD-16" target="0Jqt0QZvzuA7Bnrq7ynD-18">
          <mxGeometry relative="1" as="geometry" />
        </mxCell>
        <mxCell id="0Jqt0QZvzuA7Bnrq7ynD-16" value="input Tinggi" style="shape=parallelogram;perimeter=parallelogramPerimeter;whiteSpace=wrap;html=1;fixedSize=1;rounded=0;" vertex="1" parent="WIyWlLk6GJQsqaUBKTNV-1">
          <mxGeometry x="450" y="500" width="120" height="60" as="geometry" />
        </mxCell>
        <mxCell id="0Jqt0QZvzuA7Bnrq7ynD-18" value="Luas =&amp;nbsp;" style="whiteSpace=wrap;html=1;rounded=0;" vertex="1" parent="WIyWlLk6GJQsqaUBKTNV-1">
          <mxGeometry x="600" y="500" width="120" height="60" as="geometry" />
        </mxCell>
      </root>
    </mxGraphModel>
  </diagram>
</mxfile>
